<?xml version="1.0" standalone="no"?><!DOCTYPE svg PUBLIC "-//W3C//DTD SVG 1.1//EN" "http://www.w3.org/Graphics/SVG/1.1/DTD/svg11.dtd"><svg t="1653042455743" class="icon" viewBox="0 0 1024 1024" version="1.1" xmlns="http://www.w3.org/2000/svg" p-id="2993" xmlns:xlink="http://www.w3.org/1999/xlink" width="200" height="200"><defs><style type="text/css">@font-face { font-family: feedback-iconfont; src: url("//at.alicdn.com/t/font_1031158_u69w8yhxdu.woff2?t=1630033759944") format("woff2"), url("//at.alicdn.com/t/font_1031158_u69w8yhxdu.woff?t=1630033759944") format("woff"), url("//at.alicdn.com/t/font_1031158_u69w8yhxdu.ttf?t=1630033759944") format("truetype"); }
</style></defs><path d="M491.093 444.587c-21.76 0-42.538-4.31-58.624-12.246L112.085 274.688c-21.93-10.795-34.56-28.117-34.688-47.488-0.128-19.627 12.587-37.376 34.902-48.725L436.053 14.08C453.12 5.419 475.093 0.683 498.005 0.683c21.76 0 42.539 4.352 58.624 12.245l320.384 157.653c21.931 10.795 34.56 28.16 34.688 47.531 0.128 19.627-12.586 37.376-34.901 48.683L553.045 431.189c-17.066 8.662-39.04 13.44-61.994 13.44zM135.68 226.688l320.427 157.696c8.704 4.267 21.418 6.741 34.901 6.741 14.464 0 28.203-2.773 37.76-7.637l323.755-164.395a22.699 22.699 0 0 0 0.81-0.426L532.907 61.013c-8.704-4.266-21.462-6.784-34.944-6.784-14.422 0-28.16 2.774-37.718 7.638L136.533 226.219a98.816 98.816 0 0 0-0.81 0.426z m288.853 796.672c-11.093 0-22.613-2.944-34.432-8.661l-0.682-0.384-286.294-150.187c-34.261-16.939-60.074-53.205-60.074-84.48V374.741c0-28.373 20.864-48.981 49.536-48.981 11.093 0 22.613 2.901 34.432 8.661l0.682 0.342 286.294 150.186c34.261 16.939 60.074 53.206 60.074 84.523v404.907c0 28.373-20.821 48.981-49.536 48.981z m-10.624-56.661c2.688 1.28 4.864 2.048 6.571 2.517V569.515c0-8.662-12.075-27.648-30.379-36.608l-0.682-0.342L103.21 382.38a35.84 35.84 0 0 0-6.571-2.475v399.701c0 8.662 12.117 27.648 30.379 36.608l0.682 0.342L413.91 966.74z m164.566 56.661c-28.715 0-49.494-20.608-49.494-48.981V569.472c0-31.317 25.771-67.584 60.032-84.48l286.976-150.57c11.776-5.76 23.339-8.662 34.432-8.662 28.672 0 49.494 20.608 49.494 48.981v404.864c0 31.318-25.771 67.584-60.032 84.48L612.907 1014.7a78.592 78.592 0 0 1-34.432 8.661zM899.84 382.379L612.95 532.907c-18.305 8.96-30.422 27.946-30.422 36.608v399.701a36.992 36.992 0 0 0 6.613-2.517L876.032 816.17c18.261-8.918 30.379-27.904 30.379-36.566V379.904a36.395 36.395 0 0 0-6.571 2.475z" p-id="2994"></path></svg>